HIERARCHY
ROOT SimulationBone
{
	OFFSET 0.000000 0.000000 0.000000
	CHANNELS 6 Xposition Yposition Zposition Zrotation Yrotation Xrotation 
	JOINT Hips
	{
		OFFSET 0.000000 0.000000 0.000000
		CHANNELS 6 Xposition Yposition Zposition Zrotation Yrotation Xrotation 
		JOINT RightUpLeg
		{
			OFFSET 0.103456 1.857826 10.548504
			CHANNELS 3 Zrotation Yrotation Xrotation
			JOINT RightLeg
			{
				OFFSET 43.499996 -0.000038 0.000006
				CHANNELS 3 Zrotation Yrotation Xrotation
				JOINT RightFoot
				{
					OFFSET 42.372192 0.000011 -0.000004
					CHANNELS 3 Zrotation Yrotation Xrotation
					JOINT RightToe
					{
						OFFSET 17.300018 0.000006 0.000004
						CHANNELS 3 Zrotation Yrotation Xrotation
						End Site
						{
							OFFSET 0.000000 0.000000 0.000000
						}
					}
				}
			}
		}
		JOINT LeftUpLeg
		{
			OFFSET 0.103455 1.857819 -10.548502
			CHANNELS 3 Zrotation Yrotation Xrotation
			JOINT LeftLeg
			{
				OFFSET 43.500038 -0.000031 0.000011
				CHANNELS 3 Zrotation Yrotation Xrotation
				JOINT LeftFoot
				{
					OFFSET 42.372261 -0.000008 0.000014
					CHANNELS 3 Zrotation Yrotation Xrotation
					JOINT LeftToe
					{
						OFFSET 17.299999 -0.000004 0.000004
						CHANNELS 3 Zrotation Yrotation Xrotation
						End Site
						{
							OFFSET 0.000000 0.000000 0.000000
						}
					}
				}
			}
		}
		JOINT Spine
		{
			OFFSET 6.901965 -2.603737 -0.000000
			CHANNELS 3 Zrotation Yrotation Xrotation
			JOINT Spine1
			{
				OFFSET 12.588105 0.000013 0.000001
				CHANNELS 3 Zrotation Yrotation Xrotation
				JOINT Spine2
				{
					OFFSET 12.343203 0.000010 -0.000000
					CHANNELS 3 Zrotation Yrotation Xrotation
					JOINT Neck
					{
						OFFSET 25.832893 -0.000038 0.000001
						CHANNELS 3 Zrotation Yrotation Xrotation
						JOINT Head
						{
							OFFSET 11.766606 0.000028 0.000001
							CHANNELS 3 Zrotation Yrotation Xrotation
							End Site
							{
								OFFSET 0.000000 0.000000 0.000000
							}
						}
					}
					JOINT RightShoulder
					{
						OFFSET 19.745897 -1.480375 6.000107
						CHANNELS 3 Zrotation Yrotation Xrotation
						JOINT RightArm
						{
							OFFSET 11.284126 -0.000009 -0.000017
							CHANNELS 3 Zrotation Yrotation Xrotation
							JOINT RightForeArm
							{
								OFFSET 33.000046 0.000006 0.000030
								CHANNELS 3 Zrotation Yrotation Xrotation
								JOINT RightHand
								{
									OFFSET 25.200006 0.000034 0.000015
									CHANNELS 3 Zrotation Yrotation Xrotation
									End Site
									{
										OFFSET 0.000000 0.000000 0.000000
									}
								}
							}
						}
					}
					JOINT LeftShoulder
					{
						OFFSET 19.746096 -1.480394 -6.000075
						CHANNELS 3 Zrotation Yrotation Xrotation
						JOINT LeftArm
						{
							OFFSET 11.284135 -0.000006 -0.000006
							CHANNELS 3 Zrotation Yrotation Xrotation
							JOINT LeftForeArm
							{
								OFFSET 33.000095 0.000018 0.000006
								CHANNELS 3 Zrotation Yrotation Xrotation
								JOINT LeftHand
								{
									OFFSET 25.199783 0.000116 0.000436
									CHANNELS 3 Zrotation Yrotation Xrotation
									End Site
									{
										OFFSET 0.000000 0.000000 0.000000
									}
								}
							}
						}
					}
				}
			}
		}
	}
}
MOTION
Frames: 9
Frame Time: 0.016667
-108.479386 0.000000 -28.805303 0.000000 -60.630094 0.000000 -0.094542 91.111705 -1.116129 95.894313 -4.345006 -178.967643 179.880684 6.427451 173.730324 -21.445799 -4.032491 -15.495349 82.541778 9.791723 -5.274634 21.454557 0.003105 0.000018 162.050828 8.038435 -170.638174 -56.733247 -4.847693 5.114786 81.012871 -2.843054 2.579476 21.454546 -0.003106 -0.000002 9.209723 -1.155937 -0.917836 8.426992 -2.241950 -1.917678 8.108830 -2.253628 -1.904108 -19.973764 -2.272059 4.045405 -14.458640 -0.563512 3.056817 143.069912 -71.391204 36.625901 -7.491866 53.568835 14.183456 -37.935012 -14.743943 1.416019 14.601785 -6.700151 15.413455 172.833658 73.087891 -6.020967 -12.475934 -60.501591 -28.808382 -25.735689 13.094865 -1.032109 14.728357 14.594239 5.798418 
-107.835558 0.000000 -27.609236 0.000000 -60.571160 0.000000 -0.131717 91.036079 -1.145136 95.763992 -4.408634 -178.992882 -179.509352 6.438801 173.740451 -21.731893 -4.025772 -15.359128 83.029841 9.615630 -5.722315 21.454557 0.003103 0.000017 161.083455 7.472002 -170.758472 -53.407512 -4.405168 4.937579 81.618109 -2.779096 2.446589 21.454553 -0.003101 -0.000002 9.184807 -1.142413 -1.024153 8.378871 -2.207676 -2.128614 8.060752 -2.220618 -2.115254 -19.773476 -1.830212 3.836927 -14.491985 -0.389185 3.002827 142.245422 -71.554841 37.454406 -8.481486 52.949667 12.697749 -38.657189 -14.728217 1.433173 14.418727 -7.041513 14.834879 172.978994 72.918488 -5.877925 -10.575967 -60.299189 -30.827610 -24.543211 12.772070 -0.992720 14.825634 14.083292 5.202101 
-107.204435 0.000000 -26.399540 0.000000 -60.495501 0.000000 -0.153575 90.962349 -1.203162 95.655209 -4.456181 -179.126816 -178.754969 6.474785 173.771922 -21.794847 -4.013670 -15.289036 83.483377 9.491149 -6.165784 21.454556 0.003105 0.000017 160.302721 6.916205 -170.733926 -49.810188 -3.992718 4.790449 82.082497 -2.785479 2.067564 21.454554 -0.003095 -0.000001 9.165917 -1.132091 -1.092400 8.342102 -2.182503 -2.263866 8.024019 -2.196263 -2.250655 -19.627196 -1.413448 3.608106 -14.565607 -0.166405 2.898598 141.447642 -71.675195 38.258490 -9.421831 52.241710 11.325204 -39.434875 -14.716781 1.452464 14.179558 -7.409488 14.306875 173.064845 72.781676 -5.794526 -8.838014 -60.076121 -32.714292 -23.430016 12.482041 -0.957728 14.743814 13.012907 3.968004 
-106.581193 0.000000 -25.175910 0.000000 -60.408989 0.000000 -0.161840 90.864861 -1.292372 95.560739 -4.531086 -179.357333 -177.888192 6.576998 173.783303 -21.693562 -3.990565 -15.250995 83.952723 9.396672 -6.595669 21.454557 0.003110 0.000018 159.669783 6.441410 -170.554618 -46.034569 -3.532075 4.638250 82.274805 -2.859529 1.348983 21.454553 -0.003090 0.000000 9.149799 -1.130209 -1.130830 8.310506 -2.176306 -2.340228 7.992445 -2.190534 -2.327051 -19.549938 -1.060131 3.382771 -14.618806 0.107935 2.748556 140.691226 -71.761728 39.022569 -10.264938 51.496938 10.062976 -40.283468 -14.732242 1.475696 13.901947 -7.791605 13.936881 173.053962 72.708091 -5.808098 -7.250698 -59.895880 -34.426758 -22.375549 12.216671 -0.926052 14.573100 11.577209 2.465002 
-105.961648 0.000000 -23.936436 0.000000 -60.316915 0.000000 -0.161127 90.723382 -1.413766 95.471668 -4.668997 -179.663984 -176.947058 6.776621 173.749370 -21.489990 -3.954946 -15.214546 84.475344 9.313030 -7.005475 21.454560 0.003114 0.000018 159.141637 6.096099 -170.192590 -42.164623 -2.961607 4.476781 82.062057 -2.995644 0.313891 21.454553 -0.003086 0.000001 9.132958 -1.140267 -1.149068 8.277388 -2.195434 -2.377094 7.959334 -2.209888 -2.363803 -19.550926 -0.804298 3.181221 -14.601606 0.431195 2.558598 139.996603 -71.822405 39.725293 -10.975753 50.763753 8.903475 -41.211027 -14.791034 1.504410 13.601443 -8.180116 13.785164 172.919261 72.715820 -5.946057 -5.792751 -59.801125 -35.950976 -21.371684 11.970942 -0.897130 14.409285 9.969612 1.050826 
-105.345624 0.000000 -22.679172 0.000000 -60.224243 0.000000 -0.167486 90.570099 -1.556955 95.377491 -4.809148 179.995571 -175.935277 7.003297 173.716204 -21.144765 -3.917978 -15.189555 84.987455 9.245930 -7.395288 21.454562 0.003114 0.000018 158.706918 5.794998 -169.550307 -38.245906 -2.363356 4.251475 81.504803 -2.997038 -0.291318 21.454555 -0.003083 0.000002 9.114073 -1.147841 -1.153792 8.239881 -2.210623 -2.386731 7.921828 -2.225136 -2.373348 -19.618482 -0.656442 3.008897 -14.512617 0.782947 2.337740 139.384269 -71.862815 40.345587 -11.564754 50.073837 7.827327 -42.197174 -14.890291 1.537959 13.283831 -8.577852 13.813088 172.688971 72.789691 -6.179929 -4.476231 -59.789896 -37.265245 -20.438479 11.743829 -0.871039 14.335377 8.328780 -0.079483 
-104.736538 0.000000 -21.404319 0.000000 -60.136804 0.000000 -0.190681 90.434610 -1.712149 95.270471 -4.897591 179.666351 -174.859534 7.188914 173.735479 -20.636574 -3.891398 -15.187566 85.427725 9.200319 -7.771596 21.454560 0.003110 0.000017 158.368055 5.449333 -168.521463 -34.315038 -1.817619 3.944796 80.721562 -2.723297 0.093340 21.454554 -0.003082 0.000002 9.092540 -1.140425 -1.151512 8.196590 -2.196441 -2.381240 7.878541 -2.210919 -2.367938 -19.732500 -0.614602 2.864816 -14.368536 1.138077 2.095613 138.866621 -71.887663 40.870660 -12.050771 49.450071 6.815474 -43.211476 -15.019563 1.574827 12.954059 -8.990153 13.954286 172.406221 72.903923 -6.466254 -3.313998 -59.845467 -38.351229 -19.602017 11.536074 -0.847935 14.402177 6.773723 -0.815207 
-104.134937 0.000000 -20.113373 0.000000 -60.062519 0.000000 -0.216467 90.283737 -1.875174 95.160314 -5.003783 179.380981 -173.773277 7.381902 173.819722 -20.117559 -3.877229 -15.186473 85.846318 9.157159 -8.161385 21.454557 0.003107 0.000016 158.158399 5.087015 -167.039953 -30.410525 -1.295163 3.788820 79.880270 -2.526113 0.579630 21.454553 -0.003083 0.000001 9.068471 -1.131104 -1.150976 8.148217 -2.178389 -2.379057 7.830172 -2.192851 -2.365861 -19.859642 -0.651102 2.735824 -14.210411 1.470452 1.841375 138.425447 -71.900031 41.318766 -12.442269 48.899502 5.859617 -44.211728 -15.157185 1.612685 12.621319 -9.420319 14.130449 172.121108 73.023509 -6.754862 -2.273173 -59.933685 -39.227111 -18.884353 11.351409 -0.828150 14.578074 5.391290 -1.203981 
-103.537809 0.000000 -18.808277 0.000000 -60.011359 0.000000 -0.233526 90.085743 -2.036647 95.058249 -5.192627 179.163937 -172.725442 7.625434 173.970410 -19.731743 -3.877871 -15.162115 86.294245 9.098038 -8.585430 21.454556 0.003110 0.000017 158.102146 4.747210 -165.089536 -26.597829 -0.772220 4.025092 79.140083 -2.786992 0.280262 21.454551 -0.003088 0.000000 9.042428 -1.133030 -1.158257 8.096319 -2.182291 -2.393263 7.778271 -2.196834 -2.380047 -19.969258 -0.733385 2.607066 -14.076099 1.758525 1.582479 138.037756 -71.903750 41.712923 -12.749565 48.427223 4.951802 -45.157167 -15.282684 1.648710 12.298451 -9.866048 14.272918 171.881004 73.116936 -6.998296 -1.330362 -60.021777 -39.909007 -18.302685 11.193850 -0.811904 14.813375 4.249254 -1.334481 
